<?xml version="1.0" encoding="iso-8859-1"?>
<!-- Generator: Adobe Illustrator 16.1.0, SVG Export Plug-In . SVG Version: 6.00 Build 0)  -->
<!DOCTYPE svg PUBLIC "-//W3C//DTD SVG 1.1//EN" "http://www.w3.org/Graphics/SVG/1.1/DTD/svg11.dtd">
<svg version="1.1" id="Calque_1" xmlns="http://www.w3.org/2000/svg" xmlns:xlink="http://www.w3.org/1999/xlink" x="0px" y="0px"
	 width="28px" height="28px" viewBox="0 0 28 28" style="enable-background:new 0 0 28 28;" xml:space="preserve">
<g id="Calque_3">
	<path style="opacity:0.25;enable-background:new    ;" d="M17.84,11.85h-2.682V9.168c0-0.64-0.52-1.158-1.158-1.158
		c-0.64,0-1.158,0.519-1.158,1.158v2.682H10.16c-0.639,0-1.158,0.52-1.158,1.158c0,0.639,0.519,1.159,1.158,1.159h2.682v2.681
		c0,0.641,0.519,1.158,1.158,1.158c0.639,0,1.158-0.52,1.158-1.158v-2.681h2.682c0.641,0,1.158-0.52,1.158-1.159
		C18.998,12.369,18.479,11.85,17.84,11.85z"/>
	<path style="fill:#FFFFFF;" d="M17.84,12.832h-2.682V10.15c0-0.64-0.52-1.158-1.158-1.158c-0.64,0-1.158,0.519-1.158,1.158v2.682
		H10.16c-0.639,0-1.158,0.519-1.158,1.158c0,0.64,0.519,1.158,1.158,1.158h2.682v2.682c0,0.641,0.519,1.158,1.158,1.158
		c0.639,0,1.158-0.52,1.158-1.158v-2.682h2.682c0.641,0,1.158-0.52,1.158-1.158C18.998,13.351,18.479,12.832,17.84,12.832z"/>
</g>
</svg>
