<?xml version="1.0" encoding="iso-8859-1"?>
<!-- Generator: Adobe Illustrator 16.1.0, SVG Export Plug-In . SVG Version: 6.00 Build 0)  -->
<!DOCTYPE svg PUBLIC "-//W3C//DTD SVG 1.1//EN" "http://www.w3.org/Graphics/SVG/1.1/DTD/svg11.dtd">
<svg version="1.1" id="app" xmlns="http://www.w3.org/2000/svg" xmlns:xlink="http://www.w3.org/1999/xlink" x="0px" y="0px"
	 width="90px" height="90px" viewBox="0 0 90 90" style="enable-background:new 0 0 90 90;" xml:space="preserve">
<path style="opacity:0.25;enable-background:new    ;" d="M61.441,36.748c2.646,0,5.035,1.113,6.729,2.891v-15.91H51.127
	c1.695-1.686,2.746-4.02,2.746-6.599c0-5.138-4.165-9.305-9.305-9.305c-5.138,0-9.305,4.167-9.305,9.305
	c0,2.58,1.051,4.914,2.747,6.599H21.172l-0.001,43.167c0,0.002,0.001,0.006,0.001,0.01c0.005,2.203,1.793,3.99,3.999,3.99h43V52.466
	c-1.694,1.777-4.08,2.892-6.729,2.892c-5.139,0-9.305-4.166-9.305-9.306C52.137,40.915,56.305,36.748,61.441,36.748z"/>
<path style="fill:#FFFFFF;" d="M61.441,37.748c2.646,0,5.035,1.113,6.729,2.891v-15.91H51.127c1.695-1.686,2.746-4.02,2.746-6.599
	c0-5.138-4.165-9.305-9.305-9.305c-5.138,0-9.305,4.167-9.305,9.305c0,2.58,1.051,4.914,2.747,6.599H21.172l-0.001,43.167
	c0,0.002,0.001,0.006,0.001,0.01c0.005,2.203,1.793,3.99,3.999,3.99h43V53.466c-1.694,1.777-4.08,2.892-6.729,2.892
	c-5.139,0-9.305-4.166-9.305-9.306C52.137,41.915,56.305,37.748,61.441,37.748z"/>
</svg>
