<?xml version="1.0" encoding="iso-8859-1"?>
<!-- Generator: Adobe Illustrator 16.1.0, SVG Export Plug-In . SVG Version: 6.00 Build 0)  -->
<!DOCTYPE svg PUBLIC "-//W3C//DTD SVG 1.1//EN" "http://www.w3.org/Graphics/SVG/1.1/DTD/svg11.dtd">
<svg version="1.1" id="add-button-image" xmlns="http://www.w3.org/2000/svg" xmlns:xlink="http://www.w3.org/1999/xlink" x="0px"
	 y="0px" width="90px" height="90px" viewBox="0 0 90 90" style="enable-background:new 0 0 90 90;" xml:space="preserve">
<g id="photo">
	<g style="opacity:0.25;">
		<ellipse cx="45" cy="47.851" rx="11.675" ry="11.721"/>
		<path d="M69,29.042c0,0-3.167,0-3.729,0c-0.906,0-0.924-1.326-1.43-3.261c-0.854-3.286-5.216-6.703-9.083-6.703H45h-9.761
			c-3.867,0-8.229,3.417-9.083,6.703c-0.503,1.935-0.521,3.261-1.427,3.261c-0.562,0-3.729,0-3.729,0c-5.522,0-10,4.65-10,10.173
			v19.09c0,5.521,4.477,9.618,10,9.618h24h24c5.523,0,10-4.097,10-9.618v-19.09C79,33.692,74.521,29.042,69,29.042z M45,64.312
			c-8.998,0-16.292-7.388-16.292-16.492c0-9.11,7.293-16.492,16.292-16.492S61.292,38.71,61.292,47.82
			C61.292,56.928,53.998,64.312,45,64.312z"/>
	</g>
	<g>
		<ellipse style="fill:#FFFFFF;" cx="45" cy="48.851" rx="11.675" ry="11.721"/>
		<path style="fill:#FFFFFF;" d="M69,30.042c0,0-3.167,0-3.729,0c-0.906,0-0.924-1.326-1.43-3.261
			c-0.854-3.286-5.216-6.703-9.083-6.703H45h-9.761c-3.867,0-8.229,3.417-9.083,6.703c-0.503,1.935-0.521,3.261-1.427,3.261
			c-0.562,0-3.729,0-3.729,0c-5.522,0-10,4.65-10,10.173v19.09c0,5.521,4.477,9.618,10,9.618h24h24c5.523,0,10-4.097,10-9.618
			v-19.09C79,34.692,74.521,30.042,69,30.042z M45,65.312c-8.998,0-16.292-7.388-16.292-16.492c0-9.11,7.293-16.492,16.292-16.492
			S61.292,39.71,61.292,48.82C61.292,57.928,53.998,65.312,45,65.312z"/>
	</g>
</g>
</svg>
