<?xml version="1.0" encoding="iso-8859-1"?>
<!-- Generator: Adobe Illustrator 16.1.0, SVG Export Plug-In . SVG Version: 6.00 Build 0)  -->
<!DOCTYPE svg PUBLIC "-//W3C//DTD SVG 1.1//EN" "http://www.w3.org/Graphics/SVG/1.1/DTD/svg11.dtd">
<svg version="1.1" id="add-button-link" xmlns="http://www.w3.org/2000/svg" xmlns:xlink="http://www.w3.org/1999/xlink" x="0px"
	 y="0px" width="90px" height="90px" viewBox="0 0 90 90" style="enable-background:new 0 0 90 90;" xml:space="preserve">
<g id="www">
	<g>
		<path style="opacity:0.25;" d="M10.174,40.728c-0.392-1.057-0.665-1.782-0.724-2.626c0-1.239,0.814-2.266,2.386-2.266
			c1.116,0,1.932,0.604,2.234,1.662l2.294,7.639h0.062l2.113-6.613c0.393-1.238,0.846-2.688,2.538-2.688
			c1.692,0,2.145,1.45,2.537,2.688l2.113,6.613h0.062l2.294-7.639c0.303-1.057,1.117-1.662,2.234-1.662
			c1.572,0,2.387,1.026,2.387,2.266c-0.061,0.845-0.333,1.57-0.725,2.626l-3.292,9.209c-0.542,1.541-1.33,2.326-2.929,2.326
			c-1.69,0-2.265-0.879-2.808-2.479l-1.842-5.558h-0.062l-1.842,5.558c-0.543,1.602-1.117,2.479-2.809,2.479
			c-1.599,0-2.384-0.785-2.928-2.326L10.174,40.728z"/>
		<path style="fill:#FFFFFF;" d="M10.174,41.769c-0.392-1.057-0.665-1.782-0.724-2.626c0-1.239,0.814-2.267,2.386-2.267
			c1.116,0,1.932,0.605,2.234,1.662l2.294,7.64h0.062l2.113-6.614c0.393-1.238,0.846-2.688,2.538-2.688
			c1.692,0,2.145,1.45,2.537,2.688l2.113,6.614h0.062l2.294-7.64c0.303-1.057,1.117-1.662,2.234-1.662
			c1.572,0,2.387,1.027,2.387,2.267c-0.061,0.845-0.333,1.57-0.725,2.626l-3.292,9.209c-0.542,1.539-1.33,2.326-2.929,2.326
			c-1.69,0-2.265-0.879-2.808-2.479l-1.842-5.558h-0.062l-1.842,5.558c-0.543,1.602-1.117,2.479-2.809,2.479
			c-1.599,0-2.384-0.787-2.928-2.326L10.174,41.769z"/>
	</g>
	<g>
		<path style="opacity:0.25;" d="M34.166,40.728c-0.392-1.057-0.665-1.782-0.725-2.626c0-1.239,0.815-2.266,2.386-2.266
			c1.116,0,1.932,0.604,2.234,1.662l2.294,7.639h0.061l2.113-6.613c0.393-1.238,0.846-2.688,2.538-2.688s2.144,1.45,2.537,2.688
			l2.112,6.613h0.062l2.293-7.639c0.307-1.057,1.117-1.662,2.232-1.662c1.57,0,2.387,1.026,2.387,2.266
			c-0.062,0.845-0.332,1.57-0.727,2.626l-3.289,9.209c-0.542,1.541-1.328,2.326-2.93,2.326c-1.689,0-2.264-0.879-2.809-2.479
			l-1.844-5.558H45.03l-1.841,5.558c-0.543,1.602-1.117,2.479-2.809,2.479c-1.6,0-2.384-0.785-2.928-2.326L34.166,40.728z"/>
		<path style="fill:#FFFFFF;" d="M34.166,41.769c-0.392-1.057-0.665-1.782-0.725-2.626c0-1.239,0.815-2.267,2.386-2.267
			c1.116,0,1.932,0.605,2.234,1.662l2.294,7.64h0.061l2.113-6.614c0.393-1.238,0.846-2.688,2.538-2.688s2.144,1.45,2.537,2.688
			l2.112,6.614h0.062l2.293-7.64c0.307-1.057,1.117-1.662,2.232-1.662c1.57,0,2.387,1.027,2.387,2.267
			c-0.062,0.845-0.332,1.57-0.727,2.626l-3.289,9.209c-0.542,1.539-1.328,2.326-2.93,2.326c-1.689,0-2.264-0.879-2.809-2.479
			l-1.844-5.558H45.03l-1.841,5.558c-0.543,1.602-1.117,2.479-2.809,2.479c-1.6,0-2.384-0.787-2.928-2.326L34.166,41.769z"/>
	</g>
	<g>
		<path style="opacity:0.25;" d="M58.158,40.727c-0.393-1.056-0.665-1.781-0.725-2.625c0-1.239,0.812-2.266,2.387-2.266
			c1.115,0,1.933,0.604,2.23,1.662l2.297,7.639h0.062l2.112-6.613c0.395-1.238,0.848-2.688,2.539-2.688
			c1.688,0,2.144,1.449,2.535,2.688l2.109,6.613h0.062l2.293-7.639c0.305-1.058,1.116-1.662,2.231-1.662
			c1.569,0,2.39,1.025,2.39,2.266c-0.062,0.844-0.332,1.569-0.729,2.625l-3.292,9.208c-0.541,1.541-1.328,2.328-2.929,2.328
			c-1.689,0-2.267-0.881-2.811-2.479l-1.841-5.557H69.02l-1.845,5.557c-0.545,1.603-1.114,2.479-2.811,2.479
			c-1.601,0-2.384-0.787-2.929-2.328L58.158,40.727z"/>
		<path style="fill:#FFFFFF;" d="M58.158,41.769c-0.393-1.058-0.665-1.783-0.725-2.627c0-1.238,0.812-2.267,2.387-2.267
			c1.115,0,1.933,0.606,2.23,1.661l2.297,7.642h0.062l2.112-6.613c0.395-1.237,0.848-2.688,2.539-2.688
			c1.688,0,2.144,1.45,2.535,2.688l2.109,6.613h0.062l2.293-7.64c0.305-1.056,1.116-1.662,2.231-1.662
			c1.569,0,2.39,1.027,2.39,2.267c-0.062,0.846-0.332,1.571-0.729,2.627l-3.292,9.208c-0.541,1.539-1.328,2.326-2.929,2.326
			c-1.689,0-2.267-0.881-2.811-2.479l-1.841-5.558H69.02l-1.845,5.558c-0.545,1.6-1.114,2.479-2.811,2.479
			c-1.601,0-2.384-0.787-2.929-2.326L58.158,41.769z"/>
	</g>
</g>
</svg>
