<?xml version="1.0" encoding="iso-8859-1"?>
<!-- Generator: Adobe Illustrator 16.1.0, SVG Export Plug-In . SVG Version: 6.00 Build 0)  -->
<!DOCTYPE svg PUBLIC "-//W3C//DTD SVG 1.1//EN" "http://www.w3.org/Graphics/SVG/1.1/DTD/svg11.dtd">
<svg version="1.1" id="add-button-text" xmlns="http://www.w3.org/2000/svg" xmlns:xlink="http://www.w3.org/1999/xlink" x="0px"
	 y="0px" width="90px" height="90px" viewBox="0 0 90 90" style="enable-background:new 0 0 90 90;" xml:space="preserve">
<g id="ABC">
	<path style="opacity:0.25;" d="M36.679,33.523c0-1.81,1.245-2.827,2.978-2.827h7.237c3.922,0,7.09,2.639,7.09,6.634
		c0,2.639-1.096,4.411-3.508,5.542v0.076c3.205,0.452,5.729,3.127,5.729,6.407c0,5.313-3.543,8.182-8.746,8.182h-7.766
		c-1.734,0-3.016-1.094-3.016-2.864L36.679,33.523L36.679,33.523z M42.334,41.327h2.939c1.846,0,3.054-1.093,3.054-2.979
		c0-1.771-1.396-2.676-3.054-2.676h-2.939V41.327z M42.334,52.561h4.449c2.033,0,3.544-1.17,3.544-3.281
		c0-1.771-1.356-2.979-3.998-2.979h-3.995V52.561z"/>
	<path style="opacity:0.25;" d="M70.232,30.161c2.766,0,8.146,0.911,8.146,4.245c0,1.365-0.944,2.539-2.353,2.539
		c-1.555,0-2.612-1.326-5.797-1.326c-4.703,0-7.127,3.979-7.127,8.604c0,4.509,2.465,8.375,7.127,8.375
		c3.183,0,4.473-1.592,6.022-1.592c1.705,0,2.501,1.709,2.501,2.578c0,3.639-5.725,4.473-8.523,4.473
		c-7.692,0-13.041-6.102-13.041-13.948C57.191,36.227,62.501,30.161,70.232,30.161z"/>
	<g>
		<path style="opacity:0.25;" d="M18.889,33.358c0.64-1.731,2.108-3.124,4.027-3.124c1.995,0,3.388,1.317,4.028,3.124l7.378,20.477
			c0.226,0.603,0.3,1.127,0.3,1.394c0,1.473-1.203,2.484-2.597,2.484c-1.58,0-2.371-0.829-2.748-1.958l-1.129-3.539H17.684
			l-1.129,3.502c-0.376,1.166-1.167,1.995-2.711,1.995c-1.505,0-2.785-1.132-2.785-2.636c0-0.603,0.188-1.056,0.263-1.242
			L18.889,33.358z M19.303,47.021h7.152l-3.503-10.917h-0.075L19.303,47.021z"/>
		<path style="fill:#FFFFFF;" d="M18.889,34.323c0.64-1.731,2.108-3.124,4.027-3.124c1.995,0,3.388,1.317,4.028,3.124L34.322,54.8
			c0.226,0.603,0.3,1.128,0.3,1.394c0,1.473-1.203,2.484-2.597,2.484c-1.58,0-2.371-0.83-2.748-1.957l-1.129-3.537H17.684
			l-1.129,3.5c-0.376,1.164-1.167,1.994-2.711,1.994c-1.505,0-2.785-1.13-2.785-2.636c0-0.603,0.188-1.054,0.263-1.242
			L18.889,34.323z M19.303,47.988h7.152L22.953,37.07h-0.075L19.303,47.988z"/>
	</g>
	<path style="fill:#FFFFFF;" d="M36.679,34.489c0-1.81,1.245-2.827,2.978-2.827h7.237c3.922,0,7.09,2.639,7.09,6.634
		c0,2.639-1.096,4.411-3.508,5.541v0.076c3.205,0.453,5.729,3.128,5.729,6.411c0,5.314-3.543,8.178-8.746,8.178h-7.766
		c-1.734,0-3.016-1.092-3.016-2.863L36.679,34.489L36.679,34.489z M42.334,42.293h2.939c1.846,0,3.054-1.094,3.054-2.978
		c0-1.771-1.396-2.677-3.054-2.677h-2.939V42.293z M42.334,53.527h4.449c2.033,0,3.544-1.17,3.544-3.281
		c0-1.771-1.356-2.979-3.998-2.979h-3.995V53.527z"/>
	<path style="fill:#FFFFFF;" d="M70.232,31.133c2.766,0,8.146,0.91,8.146,4.244c0,1.365-0.944,2.539-2.353,2.539
		c-1.555,0-2.612-1.325-5.797-1.325c-4.703,0-7.127,3.978-7.127,8.604c0,4.51,2.465,8.377,7.127,8.377
		c3.183,0,4.473-1.594,6.022-1.594c1.705,0,2.501,1.707,2.501,2.576c0,3.639-5.725,4.473-8.523,4.473
		c-7.692,0-13.041-6.104-13.041-13.948C57.191,37.198,62.501,31.133,70.232,31.133z"/>
</g>
</svg>
