<?xml version="1.0" encoding="iso-8859-1"?>
<!-- Generator: Adobe Illustrator 16.1.0, SVG Export Plug-In . SVG Version: 6.00 Build 0)  -->
<!DOCTYPE svg PUBLIC "-//W3C//DTD SVG 1.1//EN" "http://www.w3.org/Graphics/SVG/1.1/DTD/svg11.dtd">
<svg version="1.1" id="add-button-video" xmlns="http://www.w3.org/2000/svg" xmlns:xlink="http://www.w3.org/1999/xlink" x="0px"
	 y="0px" width="90px" height="90px" viewBox="0 0 90 90" style="enable-background:new 0 0 90 90;" xml:space="preserve">
<g id="video">
	<g>
		<g id="outer_shadow_2_" style="opacity:0.25;">
			<path d="M53.846,61c0,2.275-1.802,4.119-4.021,4.119l-34.786-0.036c-2.22,0-4.021-1.845-4.021-4.119V26.173
				c0-2.274,1.8-4.119,4.021-4.119l34.786,0.036c2.221,0,4.021,1.845,4.021,4.119V61L53.846,61z"/>
			<path d="M78.559,25.791c-0.541-0.63-1.504-0.709-2.146-0.179L55.398,42.364c-0.36,0.299-0.539,0.727-0.535,1.156
				c-0.004,0.43,0.175,0.857,0.535,1.156L76.41,61.428c0.645,0.533,1.604,0.453,2.146-0.176c0.223-0.258,0.356-0.6,0.356-0.879
				s0-33.653,0-33.653S78.793,26.062,78.559,25.791z"/>
		</g>
		<g id="video_shape">
			<path style="fill:#FFFFFF;" d="M53.846,62.029c0,2.275-1.802,4.117-4.021,4.117l-34.786-0.035c-2.22,0-4.021-1.842-4.021-4.117
				V27.203c0-2.274,1.8-4.119,4.021-4.119l34.786,0.036c2.221,0,4.021,1.844,4.021,4.119V62.029L53.846,62.029z"/>
			<path style="fill:#FFFFFF;" d="M78.559,26.791c-0.541-0.63-1.504-0.709-2.146-0.179L55.398,43.363
				c-0.36,0.299-0.539,0.728-0.535,1.156c-0.004,0.429,0.175,0.857,0.535,1.156L76.41,62.428c0.645,0.533,1.604,0.453,2.146-0.176
				c0.223-0.258,0.356-0.6,0.356-0.879s0-33.653,0-33.653S78.793,27.062,78.559,26.791z"/>
		</g>
	</g>
</g>
</svg>
